<svg id="Ebene_1" data-name="Ebene 1" xmlns="http://www.w3.org/2000/svg" viewBox="0 0 100.53 36.04"><defs><style>.cls-1{fill:#0064a7;}</style></defs><title>Logo_Flagbit_blue_4c</title><path class="cls-1" d="M447.06,364V382.1h-4.63V364H440.7v-3.43h1.73v-2.26c0-4.35,2.16-6.15,5.62-6.15a9.62,9.62,0,0,1,1.41.14v3.32a5.24,5.24,0,0,0-.7,0c-1.06,0-1.7.7-1.7,2.58v2.4h2.4V364Z" transform="translate(-433.38 -352.07)"/><rect class="cls-1" x="20.37" y="0.35" width="4.63" height="29.68"/><path class="cls-1" d="M469.5,382.46c-4.56,0-6.75-3-6.75-6.89,0-5.23,3.67-7.35,8.48-8v-.85c0-1.84-.81-2.83-2.62-2.83a9.34,9.34,0,0,0-4.1,1l-1-3.29a12.21,12.21,0,0,1,5.93-1.41c3.89,0,6.22,2.22,6.22,6.92v13.82c-1.27.92-3.29,1.52-6.18,1.52m1.73-11.88c-2.62.39-4.17,1.7-4.17,4.67,0,2.08.85,3.74,2.65,3.74a3.31,3.31,0,0,0,1.52-.35Z" transform="translate(-433.38 -352.07)"/><path class="cls-1" d="M486.46,388.11a11.2,11.2,0,0,1-5.83-1.45l1.16-3.57a7.44,7.44,0,0,0,3.89,1c2.37,0,3.36-1.56,3.36-3.68v-.56a5.84,5.84,0,0,1-2.87.6c-3.74,0-6.18-3.71-6.18-9.51,0-6.5,2.69-10.77,8-10.77a10.27,10.27,0,0,1,5.65,1.41V380c0,5.37-2.9,8.13-7.17,8.13M489,363.94a3.59,3.59,0,0,0-1.35-.24c-2.19,0-3,2.61-3,6.85,0,4,.77,6.32,2.79,6.32a3.5,3.5,0,0,0,1.59-.35Z" transform="translate(-433.38 -352.07)"/><path class="cls-1" d="M504.2,382.46a10.47,10.47,0,0,1-5.69-1.42V352.42h4.59v8.48a6.17,6.17,0,0,1,2.83-.6c3.88,0,6.21,4,6.21,10.43,0,7.59-2.61,11.73-7.94,11.73m.45-18.73a3.69,3.69,0,0,0-1.55.32V378.5a3.19,3.19,0,0,0,1.34.28c2.3,0,3-2.79,3-7.74s-.77-7.31-2.83-7.31" transform="translate(-433.38 -352.07)"/><path class="cls-1" d="M518.79,357.16a2.55,2.55,0,1,1,2.54-2.55,2.54,2.54,0,0,1-2.54,2.55m-2.3,3.39h4.63V382.1h-4.63Z" transform="translate(-433.38 -352.07)"/><path class="cls-1" d="M531.72,382.35c-3.11,0-4.84-2.12-4.84-5.48V364h-1.73v-3.43h1.73v-4.42l4.63-1.45v5.87h2.4V364h-2.4V376.2c0,1.77.57,2.37,1.52,2.37a2.12,2.12,0,0,0,.88-.18v3.47a4.77,4.77,0,0,1-2.19.49" transform="translate(-433.38 -352.07)"/><path class="cls-1" d="M433.89,382.07a.51.51,0,0,1-.51-.5V378a.53.53,0,0,1,.15-.36.54.54,0,0,1,.36-.14h3.55a.5.5,0,0,1,.35.14.49.49,0,0,1,.15.36v3.62a.51.51,0,0,1-.5.5Z" transform="translate(-433.38 -352.07)"/></svg>